<svg width="31" height="40" viewBox="0 0 31 40" fill="none" xmlns="http://www.w3.org/2000/svg">
<path d="M7.3805 1.97027C3.96895 3.93205 1.52839 7.1002 0.508903 10.8904C-0.510802 14.6805 0.0127065 18.6395 1.9822 22.0377C4.60914 26.5696 9.50731 29.385 14.7658 29.385C16.4261 29.385 18.0735 29.1003 19.6353 28.554L26.2696 40L31 37.2795L24.3668 25.8355C26.6074 23.926 28.2206 21.3933 29.0004 18.4946C30.0198 14.7044 29.4963 10.7456 27.5268 7.34722C24.9001 2.81536 20.0017 0 14.7435 0C12.1679 0 9.6218 0.681205 7.3805 1.97027ZM22.7965 10.0677C24.0366 12.2073 24.3661 14.7001 23.7242 17.0865C23.0823 19.4729 21.5456 21.4675 19.3976 22.7028C17.9857 23.5148 16.3839 23.944 14.7658 23.944C11.4528 23.944 8.367 22.1711 6.71279 19.3173C5.47262 17.1777 5.14313 14.6851 5.78528 12.2985C6.42722 9.91207 7.96388 7.91743 10.1119 6.6819C11.5236 5.87011 13.1253 5.44093 14.7435 5.44093C18.0567 5.44093 21.1423 7.21381 22.7965 10.0677Z" fill="#AD1814"/>
</svg>
