<svg width="81" height="67" viewBox="0 0 81 67" fill="none" xmlns="http://www.w3.org/2000/svg">
<path d="M15.7648 10.72L14.6419 4.02H10.6062C10.0028 1.7152 7.90807 0 5.39892 0C2.42142 0 0 2.40396 0 5.36C0 8.31604 2.42142 10.72 5.39892 10.72C7.90807 10.72 10.0028 9.0048 10.6062 6.7H12.3527L13.0276 10.72H12.9777L19.9558 45.5814C16.6287 45.8334 13.8577 48.3767 13.531 51.5766C13.3394 53.4593 13.963 55.3447 15.2425 56.7463C16.5234 58.1533 18.3482 58.96 20.246 58.96H22.9454C22.9454 63.3941 26.5775 67 31.0438 67C35.51 67 39.1422 63.3941 39.1422 58.96H53.9892C53.9892 63.3941 57.6213 67 62.0876 67C66.5538 67 70.186 63.3941 70.186 58.96H75.5849C76.3313 58.96 76.9346 58.361 76.9346 57.62C76.9346 56.879 76.3313 56.28 75.5849 56.28H69.7136C68.5987 53.1618 65.6063 50.92 62.0876 50.92C58.5688 50.92 55.5765 53.1618 54.4616 56.28H38.6698C37.5549 53.1618 34.5625 50.92 31.0438 50.92C27.525 50.92 24.5327 53.1618 23.4178 56.28H20.246C19.1095 56.28 18.0162 55.7949 17.2442 54.9494C16.4654 54.0931 16.0996 52.9916 16.217 51.8459C16.4222 49.8239 18.3037 48.2413 20.4997 48.2413H21.5538C21.5808 48.2413 21.6078 48.2413 21.6348 48.2413L74.2675 48.2239C77.9807 48.2239 81 45.2263 81 41.5413V10.7039L15.7648 10.72ZM5.39892 8.04C3.91017 8.04 2.69946 6.83802 2.69946 5.36C2.69946 3.88198 3.91017 2.68 5.39892 2.68C6.88767 2.68 8.09838 3.88198 8.09838 5.36C8.09838 6.83802 6.88767 8.04 5.39892 8.04ZM62.0876 53.6C65.0651 53.6 67.4865 56.004 67.4865 58.96C67.4865 61.916 65.0651 64.32 62.0876 64.32C59.1101 64.32 56.6887 61.916 56.6887 58.96C56.6887 56.004 59.1101 53.6 62.0876 53.6ZM31.0438 53.6C34.0213 53.6 36.4427 56.004 36.4427 58.96C36.4427 61.916 34.0213 64.32 31.0438 64.32C28.0663 64.32 25.6449 61.916 25.6449 58.96C25.6449 56.004 28.0663 53.6 31.0438 53.6ZM74.2675 45.5439L22.7025 45.5587L22.3812 43.952C22.7241 43.7095 22.9616 43.3302 22.9616 42.88C22.9616 42.2448 22.5067 41.7383 21.9102 41.6003L20.7602 35.8571C20.9937 36.05 21.2839 36.1813 21.6119 36.1813C22.3569 36.1813 22.9616 35.581 22.9616 34.8413C22.9616 34.1017 22.3569 33.5013 21.6119 33.5013C21.0949 33.5013 20.6603 33.8002 20.4336 34.2236L18.355 23.8373C18.6857 23.5934 18.9138 23.2209 18.9138 22.78C18.9138 22.1542 18.4724 21.6531 17.888 21.5057L16.7407 15.7758C16.9702 15.9554 17.2482 16.08 17.5627 16.08C18.3077 16.08 18.9124 15.4797 18.9124 14.74C18.9124 14.0003 18.3077 13.4 17.5627 13.4C17.0579 13.4 16.6354 13.6868 16.4033 14.0941L16.2642 13.4L78.3005 13.3826V17.42C77.5555 17.42 76.9508 18.0203 76.9508 18.76C76.9508 19.4997 77.5555 20.1 78.3005 20.1V25.46C77.5555 25.46 76.9508 26.0603 76.9508 26.8C76.9508 27.5397 77.5555 28.14 78.3005 28.14V33.5C77.5555 33.5 76.9508 34.1003 76.9508 34.84C76.9508 35.5797 77.5555 36.18 78.3005 36.18V41.54C77.5555 41.54 76.9508 42.1403 76.9508 42.88C76.9508 43.3115 77.1695 43.6786 77.4893 43.9239C76.7537 44.9007 75.5889 45.5439 74.2675 45.5439Z" fill="#AD1814"/>
<path d="M45.9069 20.1C46.6523 20.1 47.2566 19.5 47.2566 18.76C47.2566 18.0199 46.6523 17.42 45.9069 17.42C45.1614 17.42 44.5571 18.0199 44.5571 18.76C44.5571 19.5 45.1614 20.1 45.9069 20.1Z" fill="#AD1814"/>
<path d="M49.9562 16.08C50.7016 16.08 51.3059 15.4801 51.3059 14.74C51.3059 14 50.7016 13.4 49.9562 13.4C49.2107 13.4 48.6064 14 48.6064 14.74C48.6064 15.4801 49.2107 16.08 49.9562 16.08Z" fill="#AD1814"/>
<path d="M49.9562 24.12C50.7016 24.12 51.3059 23.5201 51.3059 22.78C51.3059 22.0399 50.7016 21.44 49.9562 21.44C49.2107 21.44 48.6064 22.0399 48.6064 22.78C48.6064 23.5201 49.2107 24.12 49.9562 24.12Z" fill="#AD1814"/>
<path d="M54.0055 20.1C54.7509 20.1 55.3552 19.5 55.3552 18.76C55.3552 18.0199 54.7509 17.42 54.0055 17.42C53.2601 17.42 52.6558 18.0199 52.6558 18.76C52.6558 19.5 53.2601 20.1 54.0055 20.1Z" fill="#AD1814"/>
<path d="M37.8087 20.1C38.5541 20.1 39.1584 19.5 39.1584 18.76C39.1584 18.0199 38.5541 17.42 37.8087 17.42C37.0633 17.42 36.459 18.0199 36.459 18.76C36.459 19.5 37.0633 20.1 37.8087 20.1Z" fill="#AD1814"/>
<path d="M41.858 16.08C42.6035 16.08 43.2078 15.4801 43.2078 14.74C43.2078 14 42.6035 13.4 41.858 13.4C41.1126 13.4 40.5083 14 40.5083 14.74C40.5083 15.4801 41.1126 16.08 41.858 16.08Z" fill="#AD1814"/>
<path d="M41.858 24.12C42.6035 24.12 43.2078 23.5201 43.2078 22.78C43.2078 22.0399 42.6035 21.44 41.858 21.44C41.1126 21.44 40.5083 22.0399 40.5083 22.78C40.5083 23.5201 41.1126 24.12 41.858 24.12Z" fill="#AD1814"/>
<path d="M21.6119 20.1C22.3574 20.1 22.9617 19.5 22.9617 18.76C22.9617 18.0199 22.3574 17.42 21.6119 17.42C20.8665 17.42 20.2622 18.0199 20.2622 18.76C20.2622 19.5 20.8665 20.1 21.6119 20.1Z" fill="#AD1814"/>
<path d="M29.7101 20.1C30.4555 20.1 31.0598 19.5 31.0598 18.76C31.0598 18.0199 30.4555 17.42 29.7101 17.42C28.9646 17.42 28.3604 18.0199 28.3604 18.76C28.3604 19.5 28.9646 20.1 29.7101 20.1Z" fill="#AD1814"/>
<path d="M25.6613 16.08C26.4067 16.08 27.011 15.4801 27.011 14.74C27.011 14 26.4067 13.4 25.6613 13.4C24.9158 13.4 24.3115 14 24.3115 14.74C24.3115 15.4801 24.9158 16.08 25.6613 16.08Z" fill="#AD1814"/>
<path d="M33.7594 16.08C34.5048 16.08 35.1091 15.4801 35.1091 14.74C35.1091 14 34.5048 13.4 33.7594 13.4C33.014 13.4 32.4097 14 32.4097 14.74C32.4097 15.4801 33.014 16.08 33.7594 16.08Z" fill="#AD1814"/>
<path d="M25.6613 24.12C26.4067 24.12 27.011 23.5201 27.011 22.78C27.011 22.0399 26.4067 21.44 25.6613 21.44C24.9158 21.44 24.3115 22.0399 24.3115 22.78C24.3115 23.5201 24.9158 24.12 25.6613 24.12Z" fill="#AD1814"/>
<path d="M33.7594 24.12C34.5048 24.12 35.1091 23.5201 35.1091 22.78C35.1091 22.0399 34.5048 21.44 33.7594 21.44C33.014 21.44 32.4097 22.0399 32.4097 22.78C32.4097 23.5201 33.014 24.12 33.7594 24.12Z" fill="#AD1814"/>
<path d="M58.0548 16.08C58.8002 16.08 59.4045 15.4801 59.4045 14.74C59.4045 14 58.8002 13.4 58.0548 13.4C57.3094 13.4 56.7051 14 56.7051 14.74C56.7051 15.4801 57.3094 16.08 58.0548 16.08Z" fill="#AD1814"/>
<path d="M58.0548 24.12C58.8002 24.12 59.4045 23.5201 59.4045 22.78C59.4045 22.0399 58.8002 21.44 58.0548 21.44C57.3094 21.44 56.7051 22.0399 56.7051 22.78C56.7051 23.5201 57.3094 24.12 58.0548 24.12Z" fill="#AD1814"/>
<path d="M62.1036 20.1C62.8491 20.1 63.4534 19.5 63.4534 18.76C63.4534 18.0199 62.8491 17.42 62.1036 17.42C61.3582 17.42 60.7539 18.0199 60.7539 18.76C60.7539 19.5 61.3582 20.1 62.1036 20.1Z" fill="#AD1814"/>
<path d="M70.2023 20.1C70.9477 20.1 71.552 19.5 71.552 18.76C71.552 18.0199 70.9477 17.42 70.2023 17.42C69.4568 17.42 68.8525 18.0199 68.8525 18.76C68.8525 19.5 69.4568 20.1 70.2023 20.1Z" fill="#AD1814"/>
<path d="M45.9069 28.14C46.6523 28.14 47.2566 27.5401 47.2566 26.8C47.2566 26.06 46.6523 25.46 45.9069 25.46C45.1614 25.46 44.5571 26.06 44.5571 26.8C44.5571 27.5401 45.1614 28.14 45.9069 28.14Z" fill="#AD1814"/>
<path d="M54.0055 28.14C54.7509 28.14 55.3552 27.5401 55.3552 26.8C55.3552 26.06 54.7509 25.46 54.0055 25.46C53.2601 25.46 52.6558 26.06 52.6558 26.8C52.6558 27.5401 53.2601 28.14 54.0055 28.14Z" fill="#AD1814"/>
<path d="M37.8087 28.14C38.5541 28.14 39.1584 27.5401 39.1584 26.8C39.1584 26.06 38.5541 25.46 37.8087 25.46C37.0633 25.46 36.459 26.06 36.459 26.8C36.459 27.5401 37.0633 28.14 37.8087 28.14Z" fill="#AD1814"/>
<path d="M21.6119 28.14C22.3574 28.14 22.9617 27.5401 22.9617 26.8C22.9617 26.06 22.3574 25.46 21.6119 25.46C20.8665 25.46 20.2622 26.06 20.2622 26.8C20.2622 27.5401 20.8665 28.14 21.6119 28.14Z" fill="#AD1814"/>
<path d="M29.7101 28.14C30.4555 28.14 31.0598 27.5401 31.0598 26.8C31.0598 26.06 30.4555 25.46 29.7101 25.46C28.9646 25.46 28.3604 26.06 28.3604 26.8C28.3604 27.5401 28.9646 28.14 29.7101 28.14Z" fill="#AD1814"/>
<path d="M62.1036 28.14C62.8491 28.14 63.4534 27.5401 63.4534 26.8C63.4534 26.06 62.8491 25.46 62.1036 25.46C61.3582 25.46 60.7539 26.06 60.7539 26.8C60.7539 27.5401 61.3582 28.14 62.1036 28.14Z" fill="#AD1814"/>
<path d="M70.2023 28.14C70.9477 28.14 71.552 27.5401 71.552 26.8C71.552 26.06 70.9477 25.46 70.2023 25.46C69.4568 25.46 68.8525 26.06 68.8525 26.8C68.8525 27.5401 69.4568 28.14 70.2023 28.14Z" fill="#AD1814"/>
<path d="M66.153 16.08C66.8984 16.08 67.5027 15.4801 67.5027 14.74C67.5027 14 66.8984 13.4 66.153 13.4C65.4075 13.4 64.8032 14 64.8032 14.74C64.8032 15.4801 65.4075 16.08 66.153 16.08Z" fill="#AD1814"/>
<path d="M74.2516 16.08C74.997 16.08 75.6013 15.4801 75.6013 14.74C75.6013 14 74.997 13.4 74.2516 13.4C73.5062 13.4 72.9019 14 72.9019 14.74C72.9019 15.4801 73.5062 16.08 74.2516 16.08Z" fill="#AD1814"/>
<path d="M66.153 24.12C66.8984 24.12 67.5027 23.5201 67.5027 22.78C67.5027 22.0399 66.8984 21.44 66.153 21.44C65.4075 21.44 64.8032 22.0399 64.8032 22.78C64.8032 23.5201 65.4075 24.12 66.153 24.12Z" fill="#AD1814"/>
<path d="M74.2516 24.12C74.997 24.12 75.6013 23.5201 75.6013 22.78C75.6013 22.0399 74.997 21.44 74.2516 21.44C73.5062 21.44 72.9019 22.0399 72.9019 22.78C72.9019 23.5201 73.5062 24.12 74.2516 24.12Z" fill="#AD1814"/>
<path d="M45.9069 36.18C46.6523 36.18 47.2566 35.5801 47.2566 34.84C47.2566 34.0999 46.6523 33.5 45.9069 33.5C45.1614 33.5 44.5571 34.0999 44.5571 34.84C44.5571 35.5801 45.1614 36.18 45.9069 36.18Z" fill="#AD1814"/>
<path d="M49.9562 32.16C50.7016 32.16 51.3059 31.56 51.3059 30.82C51.3059 30.0799 50.7016 29.48 49.9562 29.48C49.2107 29.48 48.6064 30.0799 48.6064 30.82C48.6064 31.56 49.2107 32.16 49.9562 32.16Z" fill="#AD1814"/>
<path d="M49.9562 40.2C50.7016 40.2 51.3059 39.6001 51.3059 38.86C51.3059 38.12 50.7016 37.52 49.9562 37.52C49.2107 37.52 48.6064 38.12 48.6064 38.86C48.6064 39.6001 49.2107 40.2 49.9562 40.2Z" fill="#AD1814"/>
<path d="M54.0055 36.18C54.7509 36.18 55.3552 35.5801 55.3552 34.84C55.3552 34.0999 54.7509 33.5 54.0055 33.5C53.2601 33.5 52.6558 34.0999 52.6558 34.84C52.6558 35.5801 53.2601 36.18 54.0055 36.18Z" fill="#AD1814"/>
<path d="M37.8087 36.18C38.5541 36.18 39.1584 35.5801 39.1584 34.84C39.1584 34.0999 38.5541 33.5 37.8087 33.5C37.0633 33.5 36.459 34.0999 36.459 34.84C36.459 35.5801 37.0633 36.18 37.8087 36.18Z" fill="#AD1814"/>
<path d="M41.858 32.16C42.6035 32.16 43.2078 31.56 43.2078 30.82C43.2078 30.0799 42.6035 29.48 41.858 29.48C41.1126 29.48 40.5083 30.0799 40.5083 30.82C40.5083 31.56 41.1126 32.16 41.858 32.16Z" fill="#AD1814"/>
<path d="M41.858 40.2C42.6035 40.2 43.2078 39.6001 43.2078 38.86C43.2078 38.12 42.6035 37.52 41.858 37.52C41.1126 37.52 40.5083 38.12 40.5083 38.86C40.5083 39.6001 41.1126 40.2 41.858 40.2Z" fill="#AD1814"/>
<path d="M29.7101 36.18C30.4555 36.18 31.0598 35.5801 31.0598 34.84C31.0598 34.0999 30.4555 33.5 29.7101 33.5C28.9646 33.5 28.3604 34.0999 28.3604 34.84C28.3604 35.5801 28.9646 36.18 29.7101 36.18Z" fill="#AD1814"/>
<path d="M25.6613 32.16C26.4067 32.16 27.011 31.56 27.011 30.82C27.011 30.0799 26.4067 29.48 25.6613 29.48C24.9158 29.48 24.3115 30.0799 24.3115 30.82C24.3115 31.56 24.9158 32.16 25.6613 32.16Z" fill="#AD1814"/>
<path d="M33.7594 32.16C34.5048 32.16 35.1091 31.56 35.1091 30.82C35.1091 30.0799 34.5048 29.48 33.7594 29.48C33.014 29.48 32.4097 30.0799 32.4097 30.82C32.4097 31.56 33.014 32.16 33.7594 32.16Z" fill="#AD1814"/>
<path d="M25.6613 40.2C26.4067 40.2 27.011 39.6001 27.011 38.86C27.011 38.12 26.4067 37.52 25.6613 37.52C24.9158 37.52 24.3115 38.12 24.3115 38.86C24.3115 39.6001 24.9158 40.2 25.6613 40.2Z" fill="#AD1814"/>
<path d="M33.7594 40.2C34.5048 40.2 35.1091 39.6001 35.1091 38.86C35.1091 38.12 34.5048 37.52 33.7594 37.52C33.014 37.52 32.4097 38.12 32.4097 38.86C32.4097 39.6001 33.014 40.2 33.7594 40.2Z" fill="#AD1814"/>
<path d="M58.0548 32.16C58.8002 32.16 59.4045 31.56 59.4045 30.82C59.4045 30.0799 58.8002 29.48 58.0548 29.48C57.3094 29.48 56.7051 30.0799 56.7051 30.82C56.7051 31.56 57.3094 32.16 58.0548 32.16Z" fill="#AD1814"/>
<path d="M58.0548 40.2C58.8002 40.2 59.4045 39.6001 59.4045 38.86C59.4045 38.12 58.8002 37.52 58.0548 37.52C57.3094 37.52 56.7051 38.12 56.7051 38.86C56.7051 39.6001 57.3094 40.2 58.0548 40.2Z" fill="#AD1814"/>
<path d="M62.1036 36.18C62.8491 36.18 63.4534 35.5801 63.4534 34.84C63.4534 34.0999 62.8491 33.5 62.1036 33.5C61.3582 33.5 60.7539 34.0999 60.7539 34.84C60.7539 35.5801 61.3582 36.18 62.1036 36.18Z" fill="#AD1814"/>
<path d="M70.2023 36.18C70.9477 36.18 71.552 35.5801 71.552 34.84C71.552 34.0999 70.9477 33.5 70.2023 33.5C69.4568 33.5 68.8525 34.0999 68.8525 34.84C68.8525 35.5801 69.4568 36.18 70.2023 36.18Z" fill="#AD1814"/>
<path d="M45.9069 44.22C46.6523 44.22 47.2566 43.62 47.2566 42.88C47.2566 42.1399 46.6523 41.54 45.9069 41.54C45.1614 41.54 44.5571 42.1399 44.5571 42.88C44.5571 43.62 45.1614 44.22 45.9069 44.22Z" fill="#AD1814"/>
<path d="M54.0055 44.22C54.7509 44.22 55.3552 43.62 55.3552 42.88C55.3552 42.1399 54.7509 41.54 54.0055 41.54C53.2601 41.54 52.6558 42.1399 52.6558 42.88C52.6558 43.62 53.2601 44.22 54.0055 44.22Z" fill="#AD1814"/>
<path d="M37.8087 44.22C38.5541 44.22 39.1584 43.62 39.1584 42.88C39.1584 42.1399 38.5541 41.54 37.8087 41.54C37.0633 41.54 36.459 42.1399 36.459 42.88C36.459 43.62 37.0633 44.22 37.8087 44.22Z" fill="#AD1814"/>
<path d="M29.7101 44.22C30.4555 44.22 31.0598 43.62 31.0598 42.88C31.0598 42.1399 30.4555 41.54 29.7101 41.54C28.9646 41.54 28.3604 42.1399 28.3604 42.88C28.3604 43.62 28.9646 44.22 29.7101 44.22Z" fill="#AD1814"/>
<path d="M62.1036 44.22C62.8491 44.22 63.4534 43.62 63.4534 42.88C63.4534 42.1399 62.8491 41.54 62.1036 41.54C61.3582 41.54 60.7539 42.1399 60.7539 42.88C60.7539 43.62 61.3582 44.22 62.1036 44.22Z" fill="#AD1814"/>
<path d="M70.2023 44.22C70.9477 44.22 71.552 43.62 71.552 42.88C71.552 42.1399 70.9477 41.54 70.2023 41.54C69.4568 41.54 68.8525 42.1399 68.8525 42.88C68.8525 43.62 69.4568 44.22 70.2023 44.22Z" fill="#AD1814"/>
<path d="M66.153 32.16C66.8984 32.16 67.5027 31.56 67.5027 30.82C67.5027 30.0799 66.8984 29.48 66.153 29.48C65.4075 29.48 64.8032 30.0799 64.8032 30.82C64.8032 31.56 65.4075 32.16 66.153 32.16Z" fill="#AD1814"/>
<path d="M74.2516 32.16C74.997 32.16 75.6013 31.56 75.6013 30.82C75.6013 30.0799 74.997 29.48 74.2516 29.48C73.5062 29.48 72.9019 30.0799 72.9019 30.82C72.9019 31.56 73.5062 32.16 74.2516 32.16Z" fill="#AD1814"/>
<path d="M66.153 40.2C66.8984 40.2 67.5027 39.6001 67.5027 38.86C67.5027 38.12 66.8984 37.52 66.153 37.52C65.4075 37.52 64.8032 38.12 64.8032 38.86C64.8032 39.6001 65.4075 40.2 66.153 40.2Z" fill="#AD1814"/>
<path d="M74.2516 40.2C74.997 40.2 75.6013 39.6001 75.6013 38.86C75.6013 38.12 74.997 37.52 74.2516 37.52C73.5062 37.52 72.9019 38.12 72.9019 38.86C72.9019 39.6001 73.5062 40.2 74.2516 40.2Z" fill="#AD1814"/>
</svg>
