<svg width="85" height="85" viewBox="0 0 85 85" fill="none" xmlns="http://www.w3.org/2000/svg">
<path d="M73.5458 0H11.454C5.12826 0 0 5.12801 0 11.4539V73.5457C0 79.8716 5.12805 84.9996 11.454 84.9996H42.0774L42.1296 54.6253H34.2383C33.2128 54.6253 32.3804 53.7961 32.3765 52.7706L32.3386 42.9797C32.3347 41.9486 33.1695 41.1106 34.2007 41.1106H42.0776V31.6501C42.0776 20.6713 48.7828 14.6933 58.5767 14.6933H66.6133C67.6415 14.6933 68.4753 15.5269 68.4753 16.5553V24.811C68.4753 25.8391 67.6421 26.6724 66.6143 26.6731L61.6824 26.6754C56.3562 26.6754 55.3248 29.2063 55.3248 32.9206V41.1108H67.0283C68.1435 41.1108 69.0087 42.0846 68.8773 43.192L67.7168 52.9829C67.6058 53.9198 66.8112 54.6257 65.8679 54.6257H55.377L55.3248 85H73.5462C79.8719 85 85 79.872 85 73.5463V11.4539C84.9998 5.12801 79.8717 0 73.5458 0Z" fill="white"/>
</svg>
