<svg width="86" height="86" viewBox="0 0 86 86" fill="none" xmlns="http://www.w3.org/2000/svg">
<path d="M61.5875 0H23.4735C10.5302 0 0 10.5307 0 23.474V61.588C0 74.5318 10.5302 85.062 23.4735 85.062H61.5875C74.5318 85.062 85.062 74.5313 85.062 61.588V23.474C85.0625 10.5307 74.5318 0 61.5875 0ZM77.5154 61.588C77.5154 70.3703 70.3703 77.5149 61.588 77.5149H23.4735C14.6917 77.5154 7.54711 70.3703 7.54711 61.588V23.474C7.54711 14.6922 14.6917 7.54711 23.4735 7.54711H61.5875C70.3698 7.54711 77.5149 14.6922 77.5149 23.474V61.588H77.5154Z" fill="white"/>
<path d="M42.5311 20.6138C30.4452 20.6138 20.6128 30.4461 20.6128 42.5321C20.6128 54.6175 30.4452 64.4494 42.5311 64.4494C54.6171 64.4494 64.4494 54.6175 64.4494 42.5321C64.4494 30.4461 54.6171 20.6138 42.5311 20.6138ZM42.5311 56.9018C34.6072 56.9018 28.1599 50.4556 28.1599 42.5316C28.1599 34.6071 34.6066 28.1604 42.5311 28.1604C50.4556 28.1604 56.9023 34.6071 56.9023 42.5316C56.9023 50.4556 50.4551 56.9018 42.5311 56.9018Z" fill="white"/>
<path d="M65.3685 14.2141C63.9145 14.2141 62.486 14.8028 61.4591 15.8342C60.4272 16.8606 59.834 18.2896 59.834 19.7487C59.834 21.2032 60.4277 22.6317 61.4591 23.6631C62.4855 24.6895 63.9145 25.2832 65.3685 25.2832C66.8276 25.2832 68.2515 24.6895 69.283 23.6631C70.3144 22.6317 70.9031 21.2027 70.9031 19.7487C70.9031 18.2896 70.3144 16.8606 69.283 15.8342C68.2566 14.8028 66.8276 14.2141 65.3685 14.2141Z" fill="white"/>
</svg>
