<svg width="43" height="65" viewBox="0 0 43 65" fill="none" xmlns="http://www.w3.org/2000/svg">
<path d="M21.5516 0.465576C19.9628 0.465576 18.6948 1.75449 18.6948 3.3447V18.2146C18.6948 20.2512 17.1394 21.9223 15.061 22.0492V3.3447C15.061 1.75449 13.7944 0.465576 12.2056 0.465576C10.614 0.465576 9.34878 1.75449 9.34878 3.3447V22.0478C7.27035 21.9223 5.71361 20.2512 5.71361 18.2132V3.3447C5.71361 1.75449 4.44702 0.465576 2.8582 0.465576C1.2652 0.465576 0 1.75449 0 3.3447V18.2146C0 23.0885 3.63378 27.1226 8.34444 27.7322L6.45153 58.0425C6.43758 58.2671 6.432 58.5293 6.44595 58.7595C6.64542 61.9371 9.38087 64.3573 12.5613 64.1592C15.7403 63.9598 18.1577 61.2229 17.9583 58.0425L16.0584 27.7322C20.7704 27.1226 24.4056 23.0885 24.4056 18.2146V3.3447C24.4084 1.75449 23.1432 0.465576 21.5516 0.465576Z" fill="#AD1814"/>
<path d="M42.9886 58.2085L41.7541 1.77965C41.7541 1.14496 41.4347 0.559087 40.8879 0.241045C40.3396 -0.0783931 39.6673 -0.079788 39.1149 0.23407C35.5467 2.27205 29.7954 6.27688 29.7954 10.8829V37.4995C29.7954 39.3478 31.1094 40.8891 32.8489 41.249L31.7985 58.2057C31.786 58.4247 31.786 58.6786 31.7999 58.9032C31.9938 61.9971 34.6497 64.349 37.7423 64.1579C40.839 63.964 43.1825 61.3011 42.9886 58.2085Z" fill="#AD1814"/>
</svg>
